<?xml version="1.0" encoding="UTF-8"?>
<!-- Some icons courtesy of Font Awesome (fontawesome.io, SIL OFL) and Icomoon (icomoon.io, MIT). All logos and trademarks are property of their respective owners. -->
<svg xmlns="http://www.w3.org/2000/svg" version="1.1" xmlns:xlink="http://www.w3.org/1999/xlink" viewBox="0 0 40 40" display="none" width="0" height="0">
	<symbol id="spoon" viewBox="0 0 512 512"><path d="M245.8 220.9c-14.5-17.6-21.8-39.2-21.8-60.8C224 80 320 0 416 0c53 0 96 43 96 96c0 96-80 192-160.2 192c-21.6 0-43.2-7.3-60.8-21.8L54.6 502.6c-12.5 12.5-32.8 12.5-45.3 0s-12.5-32.8 0-45.3L245.8 220.9z" /></symbol>
	<symbol id="needle" viewBox="0 0 512 512"><path d="M441 7l32 32 32 32c9.4 9.4 9.4 24.6 0 33.9s-24.6 9.4-33.9 0l-15-15L417.9 128l55 55c9.4 9.4 9.4 24.6 0 33.9s-24.6 9.4-33.9 0l-72-72L295 73c-9.4-9.4-9.4-24.6 0-33.9s24.6-9.4 33.9 0l55 55L422.1 56 407 41c-9.4-9.4-9.4-24.6 0-33.9s24.6-9.4 33.9 0zM210.3 155.7l61.1-61.1c.3 .3 .6 .7 1 1l16 16 56 56 56 56 16 16c.3 .3 .6 .6 1 1l-191 191c-10.5 10.5-24.7 16.4-39.6 16.4H97.9L41 505c-9.4 9.4-24.6 9.4-33.9 0s-9.4-24.6 0-33.9l57-57V325.3c0-14.9 5.9-29.1 16.4-39.6l43.3-43.3 57 57c6.2 6.2 16.4 6.2 22.6 0s6.2-16.4 0-22.6l-57-57 41.4-41.4 57 57c6.2 6.2 16.4 6.2 22.6 0s6.2-16.4 0-22.6l-57-57z" /></symbol>
	<symbol id="capsules" viewBox="0 0 576 512"><path d="M64 144c0-26.5 21.5-48 48-48s48 21.5 48 48V256H64V144zM0 144V368c0 61.9 50.1 112 112 112s112-50.1 112-112V189.6c1.8 19.1 8.2 38 19.8 54.8L372.3 431.7c35.5 51.7 105.3 64.3 156 28.1s63-107.5 27.5-159.2L427.3 113.3C391.8 61.5 321.9 49 271.3 85.2c-28 20-44.3 50.8-47.3 83V144c0-61.9-50.1-112-112-112S0 82.1 0 144zm296.6 64.2c-16-23.3-10-55.3 11.9-71c21.2-15.1 50.5-10.3 66 12.2l67 97.6L361.6 303l-65-94.8zM491 407.7c-.8 .6-1.6 1.1-2.4 1.6l4-2.8c-.5 .4-1 .8-1.6 1.2z" /></symbol>
	<symbol id="bottle" viewBox="0 0 384 512"><path d="M0 32C0 14.3 14.3 0 32 0H352c17.7 0 32 14.3 32 32V64c0 17.7-14.3 32-32 32H32C14.3 96 0 81.7 0 64V32zm32 96H352V448c0 35.3-28.7 64-64 64H96c-35.3 0-64-28.7-64-64V416H144c8.8 0 16-7.2 16-16s-7.2-16-16-16H32V320H144c8.8 0 16-7.2 16-16s-7.2-16-16-16H32V224H144c8.8 0 16-7.2 16-16s-7.2-16-16-16H32V128z" /></symbol>
	<symbol id="tablet" viewBox="0 0 640 512"><path d="M614.3 247c16.3-25 25.7-54.9 25.7-87C640 71.6 568.4 0 480 0c-32.1 0-61.9 9.4-87 25.7c-7.9 5.2-8.5 16.2-1.8 22.9L591.4 248.8c6.7 6.7 17.8 6.2 22.9-1.8zM567 294.3c7.9-5.2 8.5-16.2 1.8-22.9L368.6 71.2c-6.7-6.7-17.8-6.2-22.9 1.8c-16.3 25-25.7 54.9-25.7 87c0 88.4 71.6 160 160 160c32.1 0 61.9-9.4 87-25.7zM301.5 368H18.5c-9.5 0-16.9 8.2-15 17.5C18.9 457.8 83.1 512 160 512s141.1-54.2 156.5-126.5c2-9.3-5.5-17.5-15-17.5zm0-32c9.5 0 16.9-8.2 15-17.5C301.1 246.2 236.9 192 160 192S18.9 246.2 3.5 318.5c-2 9.3 5.5 17.5 15 17.5H301.5z" /></symbol>
	<symbol id="weed" viewBox="0 0 512 512"><path d="M256 0c5.3 0 10.3 2.7 13.3 7.1c15.8 23.5 36.7 63.7 49.2 109c7.2 26.4 11.8 55.2 10.4 84c11.5-8.8 23.7-16.7 35.8-23.6c41-23.3 84.4-36.9 112.2-42.5c5.2-1 10.7 .6 14.4 4.4s5.4 9.2 4.4 14.5c-5.6 27.7-19.3 70.9-42.7 111.7c-9.1 15.9-19.9 31.7-32.4 46.3c27.8 6.6 52.4 17.3 67.2 25.5c5.1 2.8 8.2 8.2 8.2 14s-3.2 11.2-8.2 14c-15.2 8.4-40.9 19.5-69.8 26.1c-20.2 4.6-42.9 7.2-65.2 4.6l8.3 33.1c1.5 6.1-.6 12.4-5.5 16.4s-11.6 4.6-17.2 1.9L280 417.2V488c0 13.3-10.7 24-24 24s-24-10.7-24-24V417.2l-58.5 29.1c-5.6 2.8-12.3 2.1-17.2-1.9s-7-10.3-5.5-16.4l8.3-33.1c-22.2 2.6-45 0-65.2-4.6c-28.9-6.6-54.6-17.6-69.8-26.1c-5.1-2.8-8.2-8.2-8.2-14s3.2-11.2 8.2-14c14.8-8.2 39.4-18.8 67.2-25.5C78.9 296.3 68.1 280.5 59 264.6c-23.4-40.8-37.1-84-42.7-111.7c-1.1-5.2 .6-10.7 4.4-14.5s9.2-5.4 14.4-4.4c27.9 5.5 71.2 19.2 112.2 42.5c12.1 6.9 24.3 14.7 35.8 23.6c-1.4-28.7 3.1-57.6 10.4-84c12.5-45.3 33.4-85.5 49.2-109c3-4.4 8-7.1 13.3-7.1z" /></symbol>
	<symbol id="unused" viewBox="0 0 512 512"><path d="" /></symbol>
</svg>